<?xml version="1.0" encoding="UTF-8" standalone="no"?><!DOCTYPE svg PUBLIC "-//W3C//DTD SVG 1.1//EN" "http://www.w3.org/Graphics/SVG/1.1/DTD/svg11.dtd"><svg width="100%" height="100%" viewBox="0 0 288 288" version="1.1" xmlns="http://www.w3.org/2000/svg" xmlns:xlink="http://www.w3.org/1999/xlink" xml:space="preserve" style="fill-rule:evenodd;clip-rule:evenodd;stroke-linejoin:round;stroke-miterlimit:1.41421;"><rect x="0" y="0" width="288" height="288" style="fill:#25282d;"/><path d="M84.01,98.187c0,-13.461 -10.929,-24.391 -24.391,-24.391l-22.645,0c-13.461,0 -24.391,10.93 -24.391,24.391c0,13.462 10.93,24.391 24.391,24.391l22.645,0c13.462,0 24.391,-10.929 24.391,-24.391Z" style="fill:#58a8c9;"/><path d="M105.568,149.369c0,-13.462 -10.929,-24.391 -24.39,-24.391l-44.204,0c-13.461,0 -24.391,10.929 -24.391,24.391c0,13.462 10.93,24.391 24.391,24.391l44.204,0c13.461,0 24.39,-10.929 24.39,-24.391Z" style="fill:#e68c00;"/><path d="M69.054,200.551c0,-13.462 -10.929,-24.391 -24.391,-24.391l-7.689,0c-13.461,0 -24.391,10.929 -24.391,24.391c0,13.462 10.93,24.391 24.391,24.391l7.689,0c13.462,0 24.391,-10.929 24.391,-24.391Z" style="fill:#82b664;"/><path d="M183.257,251.733c0,-13.462 -10.93,-24.391 -24.391,-24.391l-121.892,0c-13.461,0 -24.391,10.929 -24.391,24.391c0,13.461 10.93,24.391 24.391,24.391l121.892,0c13.461,0 24.391,-10.93 24.391,-24.391Z" style="fill:#c3676a;"/><text x="29.393px" y="108.21px" style="font-family:'Poppins-Regular', 'Poppins';font-size:30px;fill:#fff;">So</text><text x="30.113px" y="159.708px" style="font-family:'Poppins-Regular', 'Poppins';font-size:30px;fill:#fff;">This</text><text x="28.673px" y="211.497px" style="font-family:'Poppins-Regular', 'Poppins';font-size:30px;fill:#fff;">Is</text><text x="30.113px" y="262.188px" style="font-family:'Poppins-Regular', 'Poppins';font-size:30px;fill:#fff;">Awkward</text></svg>